# xmcd CD database file
#
# Track frame offsets:
#	150
#	27597
#	61720
#	88545
#	113985
#	135505
#	157735
#	190422
#
# Disc length: 2678 seconds
#
# Revision: 0
# Processed by: cddbd v1.5.2PL0 Copyright (c) Steve Scherf et al.
# Submitted via: CDex 1.70beta2
#
DISCID=5f0a7408
DTITLE=Hideaki Yoshioka - Always
DYEAR=1992
DGENRE=Jazz
TTITLE0=Aha Bud
TTITLE1=Doing
TTITLE2=Quiet Message
TTITLE3=A Man Come Back
TTITLE4=Casually
TTITLE5=Passionate
TTITLE6=Strange Dance
TTITLE7=Always
EXTD=YEAR: 1992
EXTT0=
EXTT1=
EXTT2=
EXTT3=
EXTT4=
EXTT5=
EXTT6=
EXTT7=
PLAYORDER=
